<mxfile host="65bd71144e">
    <diagram id="9Gkl-Su-K846KdnqOEIR" name="Page-1">
        <mxGraphModel dx="256" dy="727" grid="1" gridSize="10" guides="1" tooltips="1" connect="1" arrows="1" fold="1" page="1" pageScale="1" pageWidth="827" pageHeight="1169" math="0" shadow="0">
            <root>
                <mxCell id="0"/>
                <mxCell id="1" parent="0"/>
                <UserObject label="构造器与构造器声明对象" link="https://github.com/zack-xy/knownNet/blob/main/Books/JavaScript%E8%AF%AD%E8%A8%80%E7%B2%BE%E9%AB%93%E4%B8%8E%E7%BC%96%E7%A8%8B%E5%AE%9E%E8%B7%B5/%E6%9E%84%E9%80%A0%E5%99%A8%E4%B8%8E%E6%9E%84%E9%80%A0%E5%99%A8%E5%A3%B0%E6%98%8E%E5%AF%B9%E8%B1%A1.js" id="6">
                    <mxCell style="whiteSpace=wrap;html=1;fontSize=14;align=left;verticalAlign=bottom;fillColor=#ffffff;strokeColor=#33A64C;fontColor=#33A64C;shadow=0;dashed=0;spacing=20;spacingBottom=0;" vertex="1" parent="1">
                        <mxGeometry x="505" y="340" width="195" height="60" as="geometry"/>
                    </mxCell>
                </UserObject>
                <UserObject label="字面量对象" link="https://github.com/zack-xy/knownNet/blob/main/Books/JavaScript%E8%AF%AD%E8%A8%80%E7%B2%BE%E9%AB%93%E4%B8%8E%E7%BC%96%E7%A8%8B%E5%AE%9E%E8%B7%B5/%E5%A3%B0%E6%98%8E%E5%AF%B9%E8%B1%A1%E5%AD%97%E9%9D%A2%E9%87%8F.js" id="8">
                    <mxCell style="whiteSpace=wrap;html=1;fontSize=14;align=left;verticalAlign=bottom;fillColor=#ffffff;strokeColor=#33A64C;fontColor=#33A64C;shadow=0;dashed=0;spacing=20;spacingBottom=0;" vertex="1" parent="1">
                        <mxGeometry x="505" y="450" width="195" height="60" as="geometry"/>
                    </mxCell>
                </UserObject>
                <mxCell id="10" value="" style="shape=curlyBracket;whiteSpace=wrap;html=1;rounded=1;labelPosition=left;verticalLabelPosition=middle;align=right;verticalAlign=middle;" vertex="1" parent="1">
                    <mxGeometry x="460" y="360" width="20" height="120" as="geometry"/>
                </mxCell>
            </root>
        </mxGraphModel>
    </diagram>
</mxfile>
